<?xml version="1.0" encoding="UTF-8" standalone="no"?>
<!DOCTYPE svg PUBLIC "-//W3C//DTD SVG 1.1//EN" "http://www.w3.org/Graphics/SVG/1.1/DTD/svg11.dtd">
<!-- Generated by Microsoft Visio, SVG Export versioning.svg Page-1 -->
<svg xmlns="http://www.w3.org/2000/svg" xmlns:xlink="http://www.w3.org/1999/xlink"
		width="8.82639in" height="3.53405in" viewBox="0 0 635.5 254.452" xml:space="preserve" color-interpolation-filters="sRGB"
		class="st12">
	<title>Self-Describing DID Methods</title>

	<style type="text/css">
	<![CDATA[
		.st1 {fill:#00aba9;stroke:#ffffff;stroke-linecap:round;stroke-linejoin:round;stroke-width:0.5}
		.st2 {fill:#000000;font-family:Arial;font-size:1.66667em}
		.st3 {fill:#339933;stroke:#ffffff;stroke-linecap:round;stroke-linejoin:round;stroke-width:0.5}
		.st4 {fill:#f09609;stroke:#ffffff;stroke-linecap:round;stroke-linejoin:round;stroke-width:0.5}
		.st5 {marker-end:url(#mrkr4-30);stroke:#1ba1e2;stroke-linecap:round;stroke-linejoin:round;stroke-width:1}
		.st6 {fill:#1ba1e2;fill-opacity:1;stroke:#1ba1e2;stroke-opacity:1;stroke-width:0.28409090909091}
		.st7 {marker-end:url(#mrkr4-36);stroke:#e51400;stroke-linecap:round;stroke-linejoin:round;stroke-width:1}
		.st8 {fill:#e51400;fill-opacity:1;stroke:#e51400;stroke-opacity:1;stroke-width:0.28409090909091}
		.st9 {fill:#000000;font-family:Arial;font-size:1.16666em}
		.st10 {fill:#ffffff;stroke:none;stroke-linecap:butt;stroke-width:7.2}
		.st11 {fill:#000000;font-family:Arial;font-size:1.00001em}
		.st12 {fill:none;fill-rule:evenodd;font-size:12px;overflow:visible;stroke-linecap:square;stroke-miterlimit:3}
	]]>
	</style>

	<defs id="Markers">
		<g id="lend4">
			<path d="M 2 1 L 0 0 L 2 -1 L 2 1 " style="stroke:none"/>
		</g>
		<marker id="mrkr4-30" class="st6" refX="-7.04" orient="auto" markerUnits="strokeWidth" overflow="visible">
			<use xlink:href="#lend4" transform="scale(-3.52,-3.52) "/>
		</marker>
		<marker id="mrkr4-36" class="st8" refX="-7.04" orient="auto" markerUnits="strokeWidth" overflow="visible">
			<use xlink:href="#lend4" transform="scale(-3.52,-3.52) "/>
		</marker>
	</defs>
	<g>
		<title>Page-1</title>
		<g id="shape1-1" transform="translate(41,-200.202)">
			<title>Rectangle</title>
			<desc>1.0.0</desc>
			<rect x="0" y="218.452" width="54" height="36" class="st1"/>
			<text x="4.76" y="242.45" class="st2">1.0.0</text>		</g>
		<g id="shape2-4" transform="translate(257,-146.202)">
			<title>Rectangle.2</title>
			<desc>1.1.0</desc>
			<rect x="0" y="218.452" width="54" height="36" class="st3"/>
			<text x="4.76" y="242.45" class="st2">1.1.0</text>		</g>
		<g id="shape3-7" transform="translate(329,-146.202)">
			<title>Rectangle.3</title>
			<desc>1.2.0</desc>
			<rect x="0" y="218.452" width="54" height="36" class="st3"/>
			<text x="4.76" y="242.45" class="st2">1.2.0</text>		</g>
		<g id="shape4-10" transform="translate(473,-146.202)">
			<title>Rectangle.4</title>
			<desc>1.3.0</desc>
			<rect x="0" y="218.452" width="54" height="36" class="st3"/>
			<text x="4.76" y="242.45" class="st2">1.3.0</text>		</g>
		<g id="shape5-13" transform="translate(113,-92.2019)">
			<title>Rectangle.5</title>
			<desc>1.0.1</desc>
			<rect x="0" y="218.452" width="54" height="36" class="st4"/>
			<text x="4.76" y="242.45" class="st2">1.0.1</text>		</g>
		<g id="shape6-16" transform="translate(185,-92.2019)">
			<title>Rectangle.6</title>
			<desc>1.0.2</desc>
			<rect x="0" y="218.452" width="54" height="36" class="st4"/>
			<text x="4.76" y="242.45" class="st2">1.0.2</text>		</g>
		<g id="shape7-19" transform="translate(401,-92.2019)">
			<title>Rectangle.7</title>
			<desc>1.2.1</desc>
			<rect x="0" y="218.452" width="54" height="36" class="st4"/>
			<text x="4.76" y="242.45" class="st2">1.2.1</text>		</g>
		<g id="shape11-22" transform="translate(545,-200.202)">
			<title>Rectangle.11</title>
			<desc>2.0.0</desc>
			<rect x="0" y="218.452" width="54" height="36" class="st1"/>
			<text x="4.76" y="242.45" class="st2">2.0.0</text>		</g>
		<g id="shape80-25" transform="translate(95,-227.202)">
			<title>Dynamic connector</title>
			<path d="M0 263.45 L442.96 263.45" class="st5"/>
		</g>
		<g id="shape81-31" transform="translate(311,-155.202)">
			<title>Dynamic connector.81</title>
			<path d="M0 245.45 L10.96 245.45" class="st7"/>
		</g>
		<g id="shape82-37" transform="translate(383,-155.202)">
			<title>Dynamic connector.82</title>
			<path d="M0 245.45 L82.96 245.45" class="st7"/>
		</g>
		<g id="shape83-42" transform="translate(167,-101.202)">
			<title>Dynamic connector.83</title>
			<path d="M0 245.45 L10.96 245.45" class="st7"/>
		</g>
		<g id="shape97-47" transform="translate(68,-200.202)">
			<title>Dynamic connector.97</title>
			<path d="M0 254.45 L-0 263.45 L216 263.45 L216 265.41" class="st7"/>
		</g>
		<g id="shape99-52" transform="translate(68,-200.202)">
			<title>Dynamic connector.99</title>
			<path d="M0 254.45 L0 263.45 L288 263.45 L288 265.41" class="st7"/>
		</g>
		<g id="shape100-57" transform="translate(68,-200.202)">
			<title>Dynamic connector.100</title>
			<path d="M0 254.45 L0 263.45 L432 263.45 L432 265.41" class="st7"/>
		</g>
		<g id="shape101-62" transform="translate(68,-200.202)">
			<title>Dynamic connector.101</title>
			<path d="M0 254.45 L-0 344.45 L37.96 344.45" class="st7"/>
		</g>
		<g id="shape102-67" transform="translate(68,-200.202)">
			<title>Dynamic connector.102</title>
			<path d="M0 254.45 L0 308.45 L69 308.45 A3 3 0 1 1 75 308.45 L108 308.45 L108 344.45 L109.96 344.45" class="st7"/>
		</g>
		<g id="shape103-72" transform="translate(383,-164.202)">
			<title>Dynamic connector.103</title>
			<path d="M0 254.45 L9 254.45 L9 308.45 L10.96 308.45" class="st7"/>
		</g>
		<g id="shape104-77" transform="translate(284,-146.202)">
			<title>Dynamic connector.104</title>
			<path d="M0 254.45 L-0 326.45 L288 326.45 L288 207.49" class="st5"/>
		</g>
		<g id="shape105-82" transform="translate(356,-146.202)">
			<title>Dynamic connector.105</title>
			<path d="M0 254.45 L0 326.45 L216 326.45 L216 207.49" class="st5"/>
		</g>
		<g id="shape106-87" transform="translate(527,-164.202)">
			<title>Dynamic connector.106</title>
			<path d="M0 254.45 L45 254.45 L45 225.49" class="st5"/>
		</g>
		<g id="shape107-92" transform="translate(140,-128.202)">
			<title>Dynamic connector.107</title>
			<path d="M0 254.45 L0 218.45 L109.96 218.45" class="st7"/>
		</g>
		<g id="shape108-97" transform="translate(212,-128.202)">
			<title>Dynamic connector.108</title>
			<path d="M0 254.45 L0 218.45 L37.96 218.45" class="st7"/>
		</g>
		<g id="shape109-102" transform="translate(428,-128.202)">
			<title>Dynamic connector.109</title>
			<path d="M0 254.45 L0 218.45 L37.96 218.45" class="st7"/>
		</g>
		<g id="shape110-107" transform="translate(140,-92.2019)">
			<title>Dynamic connector.110</title>
			<path d="M0 254.45 L-0 272.45 L432 272.45 L432 153.49" class="st5"/>
		</g>
		<g id="shape111-112" transform="translate(212,-92.2019)">
			<title>Dynamic connector.111</title>
			<path d="M0 254.45 L-0 272.45 L360 272.45 L360 153.49" class="st5"/>
		</g>
		<g id="shape112-117" transform="translate(455,-110.202)">
			<title>Dynamic connector.112</title>
			<path d="M0 254.45 L117 254.45 L117 171.49" class="st5"/>
		</g>
		<g id="shape113-122" transform="translate(41,-20.2019)">
			<title>Rectangle.113</title>
			<desc>Major</desc>
			<rect x="0" y="218.452" width="54" height="36" class="st1"/>
			<text x="9.5" y="240.65" class="st9">Major</text>		</g>
		<g id="shape114-125" transform="translate(113,-20.2019)">
			<title>Rectangle.114</title>
			<desc>Minor</desc>
			<rect x="0" y="218.452" width="54" height="36" class="st3"/>
			<text x="9.5" y="240.65" class="st9">Minor</text>		</g>
		<g id="shape115-128" transform="translate(185,-20.2019)">
			<title>Rectangle.115</title>
			<desc>Patch</desc>
			<rect x="0" y="218.452" width="54" height="36" class="st4"/>
			<text x="9.1" y="240.65" class="st9">Patch</text>		</g>
		<g id="shape116-131" transform="translate(311,-20.2019)">
			<title>Dynamic connector.116</title>
			<desc>upgrade, not guaranteed to be usable</desc>
			<path d="M0 245.45 L280.96 245.45" class="st5"/>
			<rect x="43.9175" y="238.252" width="200.165" height="14.4001" class="st10"/>
			<text x="43.92" y="249.05" class="st11">upgrade, not guaranteed to be usable</text>		</g>
		<g id="shape117-138" transform="translate(311,-38.2019)">
			<title>Dynamic connector.117</title>
			<desc>usable without modification</desc>
			<path d="M0 245.45 L280.96 245.45" class="st7"/>
			<rect x="71.9578" y="238.252" width="144.085" height="14.4001" class="st10"/>
			<text x="71.96" y="249.05" class="st11">usable without modification</text>		</g>
	</g>
</svg>
